<svg xmlns="http://www.w3.org/2000/svg" version="1.1" xmlns:xlink="http://www.w3.org/1999/xlink" width="512" height="512" x="0" y="0" viewBox="0 0 512 512" style="enable-background:new 0 0 512 512" xml:space="preserve" class=""><g><path d="M408.364 247.592v227.167c0 10.136-8.221 18.356-18.366 18.356H25.866c-10.146 0-18.366-8.221-18.366-18.356V218.775" style="stroke-width:15;stroke-linecap:round;stroke-linejoin:round;stroke-miterlimit:10;" fill="none" stroke="#008aff" stroke-width="15" stroke-linecap="round" stroke-linejoin="round" stroke-miterlimit="10" data-original="#000000" class="" opacity="1"></path><path d="M34.508 276.614h346.848v168.091H34.508z" style="stroke-width:15;stroke-linecap:round;stroke-linejoin:round;stroke-miterlimit:10;" fill="none" stroke="#008aff" stroke-width="15" stroke-linecap="round" stroke-linejoin="round" stroke-miterlimit="10" data-original="#000000" class="" opacity="1"></path><path d="m321.856 341.548 6.156 12.474 13.766 2c3.736.543 5.228 5.134 2.524 7.769l-9.961 9.71 2.351 13.71c.638 3.721-3.267 6.559-6.609 4.802l-12.312-6.473-12.312 6.473c-3.342 1.757-7.247-1.081-6.609-4.802l2.351-13.71-9.961-9.71c-2.703-2.635-1.212-7.226 2.524-7.769l13.766-2 6.156-12.474c1.672-3.386 6.499-3.386 8.17 0zM314.259 218.775H7.502v-55.51c0-10.14 8.22-18.36 18.36-18.36h250.52M34.57 181.839h74.58M381.296 247.104h0" style="stroke-width:15;stroke-linecap:round;stroke-linejoin:round;stroke-miterlimit:10;" fill="none" stroke="#008aff" stroke-width="15" stroke-linecap="round" stroke-linejoin="round" stroke-miterlimit="10" data-original="#000000" class="" opacity="1"></path><circle cx="390.146" cy="133.238" r="114.354" style="stroke-width:15;stroke-linecap:round;stroke-linejoin:round;stroke-miterlimit:10;" fill="none" stroke="#008aff" stroke-width="15" stroke-linecap="round" stroke-linejoin="round" stroke-miterlimit="10" data-original="#000000" class="" opacity="1"></circle><path d="M80.99 396.153s21.427-42.08 56.933-47.364c35.507-5.284 25.995 36.345 25.995 36.345s22.98-58.595 76.852-48.582M224.834 79.585v28.763M239.215 93.966h-28.762M176.649 49.113h0M397.293 148.298 378.195 129.2l49.966-49.966c5.274-5.274 13.824-5.274 19.098 0h0c5.274 5.274 5.274 13.824 0 19.098l-49.966 49.966z" style="stroke-width:15;stroke-linecap:round;stroke-linejoin:round;stroke-miterlimit:10;" fill="none" stroke="#008aff" stroke-width="15" stroke-linecap="round" stroke-linejoin="round" stroke-miterlimit="10" data-original="#000000" class="" opacity="1"></path><path d="m378.195 129.2 19.098 19.098s3.097 16.421-13.417 32.58c-9.703 9.493-33.477 20.187-50.565-6.793 0 0 10.484-13.798 13.532-22.442s12.033-20.011 31.352-22.443z" style="stroke-width:15;stroke-linecap:round;stroke-linejoin:round;stroke-miterlimit:10;" fill="none" stroke="#008aff" stroke-width="15" stroke-linecap="round" stroke-linejoin="round" stroke-miterlimit="10" data-original="#000000" class="" opacity="1"></path></g></svg>