<svg xmlns="http://www.w3.org/2000/svg" version="1.1" xmlns:xlink="http://www.w3.org/1999/xlink" width="512" height="512" x="0" y="0" viewBox="0 0 60 60" style="enable-background:new 0 0 512 512" xml:space="preserve" class=""><g><g fill="#000" fill-rule="nonzero"><path d="M57 42h-2v-1a3 3 0 0 0-3-3h-3.595a3.987 3.987 0 0 0-3.072 1.439l-3.2 3.841c-.378.456-.94.72-1.533.72H21a1 1 0 0 1-1-1v-1.184A3 3 0 0 0 22 39V28h1a4 4 0 0 0 4-4v-8a1 1 0 0 1 2 0v20a6 6 0 1 0 12 0v-.1a7.272 7.272 0 0 0 5.091-4.478c.008-.017.018-.034.025-.052A11 11 0 0 0 47 27a10 10 0 0 0-2.85-7.231 3 3 0 0 0 .5-5.271 8 8 0 1 0-9.3 0 3 3 0 0 0 .5 5.271A10 10 0 0 0 33 27a11 11 0 0 0 .884 4.367c.007.018.017.035.025.052A7.272 7.272 0 0 0 39 35.9v.1a4 4 0 1 1-8 0V16a3 3 0 0 0-6 0v8a2 2 0 0 1-2 2h-1v-7a3 3 0 0 0-2-2.816V9A9 9 0 0 0 2 9v7.184A3 3 0 0 0 0 19v20a3 3 0 0 0 2 2.816V47c.007 6.072 4.928 10.993 11 11h28.092c.395 0 .78.116 1.109.336l1.488.992c.657.439 1.43.673 2.219.672h8.985a3.082 3.082 0 0 0 3.066-2.5 3.019 3.019 0 0 0-.358-1.992 2.954 2.954 0 0 0 1.358-2.008 3.019 3.019 0 0 0-.358-1.992 2.954 2.954 0 0 0 1.358-2.008 3.009 3.009 0 0 0-.673-2.44l-.051-.06A3 3 0 0 0 57 42zM34.09 9H35a1 1 0 0 0 0-2h-.91c.15-.89.5-1.736 1.025-2.471l.642.642a1 1 0 1 0 1.414-1.414l-.642-.642A5.964 5.964 0 0 1 39 2.09V3a1 1 0 0 0 2 0v-.91c.89.15 1.736.5 2.471 1.025l-.642.642a1 1 0 1 0 1.414 1.414l.642-.642c.524.735.875 1.58 1.025 2.471H45a1 1 0 0 0 0 2h.91c-.15.89-.5 1.736-1.025 2.471l-.642-.642a1 1 0 0 0-1.414 1.414l.642.642a5.96 5.96 0 0 1-6.942 0l.642-.642a1 1 0 0 0-1.414-1.414l-.642.642A5.964 5.964 0 0 1 34.09 9zM37 18a1 1 0 0 1 0-2h6a1 1 0 0 1 0 2zm-.492 14H38a1 1 0 0 0 0-2h-2.511a9.111 9.111 0 0 1-.432-2H38a1 1 0 0 0 0-2h-2.943c.068-.68.213-1.352.432-2H38a1 1 0 0 0 0-2h-1.492a4.049 4.049 0 0 1 6.984 0H42a1 1 0 0 0 0 2h2.511c.219.648.364 1.32.432 2H42a1 1 0 0 0 0 2h2.943a9.111 9.111 0 0 1-.432 2H42a1 1 0 0 0 0 2h1.492a4.049 4.049 0 0 1-6.984 0zM11 2a7.008 7.008 0 0 1 7 7v7H4V9a7.008 7.008 0 0 1 7-7zM2 19a1 1 0 0 1 1-1h16a1 1 0 0 1 1 1v20a1 1 0 0 1-1 1H3a1 1 0 0 1-1-1zm55 29a1 1 0 0 1 .986 1.175c-.123.5-.58.844-1.093.825H56a1 1 0 0 0 0 2 1 1 0 0 1 .986 1.175c-.123.5-.58.844-1.093.825H55a1 1 0 0 0 0 2 1 1 0 0 1 .986 1.175c-.123.5-.58.844-1.093.825h-8.985c-.395 0-.78-.116-1.109-.336l-1.488-.992A3.984 3.984 0 0 0 41.092 56H13a9.011 9.011 0 0 1-9-9v-5h14v1a3 3 0 0 0 3 3h19.6a3.987 3.987 0 0 0 3.072-1.439l3.2-3.841c.378-.456.94-.72 1.533-.72H52a1 1 0 0 1 1 1v1h-3a1 1 0 0 0 0 2h7a1 1 0 0 1 0 2 1 1 0 0 0 0 2z" fill="#008aff" opacity="1" data-original="#000000"></path><path d="M40 9a1 1 0 0 0 .707-.293l1-1a1 1 0 1 0-1.414-1.414l-1 1A1 1 0 0 0 40 9zM5 38a1 1 0 0 0 1-1V21a1 1 0 0 0-2 0v16a1 1 0 0 0 1 1zM17 38a1 1 0 0 0 1-1V21a1 1 0 0 0-2 0v16a1 1 0 0 0 1 1zM9 28h4a1 1 0 0 0 0-2H9a1 1 0 0 0 0 2zM12 30h-2a1 1 0 0 0 0 2h2a1 1 0 0 0 0-2z" fill="#008aff" opacity="1" data-original="#000000"></path></g></g></svg>