<svg xmlns="http://www.w3.org/2000/svg" version="1.1" xmlns:xlink="http://www.w3.org/1999/xlink" width="512" height="512" x="0" y="0" viewBox="0 0 245.645 206.953" style="enable-background:new 0 0 512 512" xml:space="preserve" class=""><g><path d="M178.482 203.21a14.765 14.765 0 0 1-2.779-8.62v-14.21l-3.152 19.804-.475 2.981 1.852.295 4.403.7zM234.795 194.59c0 3.454-1.195 6.63-3.18 9.156l.066.415 4.93-.785 1.324-.211-.326-2.053-2.814-17.676zM232.745 43.2c-2.593-2.226-5.132-2.993-7.05-3.2a7.741 7.741 0 0 0-1.128-.09h-.71C219.2 44.882 212.584 48 205.249 48s-13.951-3.117-18.608-8.09h-.71c-.38 0-.754.036-1.121.09-1.544.165-3.491.708-5.545 2.068-.114.237-.229.475-.361.706a10.419 10.419 0 0 1-4.417 4.159c-8.017 11.718-10.99 38.36-9.07 81.063a8 8 0 0 0 8.352 7.633 7.988 7.988 0 0 0 1.934-.336v-7.869c0-8.195 6.668-14.863 14.863-14.863 6.93 0 12.75 4.772 14.39 11.198h.587c1.639-6.426 7.458-11.198 14.387-11.198 8.196 0 14.865 6.668 14.865 14.863v7.868a7.993 7.993 0 0 0 2.3.345 8.001 8.001 0 0 0 7.986-7.64c2.161-48.08-1.874-75.818-12.336-84.796z" fill="#008aff" opacity="1" data-original="#000000"></path><path d="M190.567 206.953c6.828 0 12.365-5.533 12.365-12.363v-67.166c0-6.83-5.537-12.363-12.365-12.363-6.827 0-12.364 5.533-12.364 12.363v67.166c0 6.83 5.537 12.363 12.364 12.363zM232.295 127.424c0-6.83-5.537-12.363-12.365-12.363-6.826 0-12.363 5.533-12.363 12.363v67.166c0 6.83 5.537 12.363 12.363 12.363 6.828 0 12.365-5.533 12.365-12.363z" fill="#008aff" opacity="1" data-original="#000000"></path><circle cx="205.249" cy="22.5" r="22.5" fill="#008aff" opacity="1" data-original="#000000"></circle><path d="M105.894 130.708c-3.165 1.524-6.708 2.264-10.83 2.264-8.083 0-17.167-2.839-27.437-6.504 3.02 8.816 10.88 11.497 17.862 12.894 2.433.487 4.512.831 6.296.805.543.072 1.093.122 1.655.122h37.231l4.38 53.52c.535 6.534 6.003 11.48 12.445 11.48.341 0 .687-.014 1.033-.042 6.88-.563 12.002-6.597 11.44-13.478l-5.32-65a12.5 12.5 0 0 0-12.459-11.48h-24.018c-2.593 7.644-6.61 12.69-12.278 15.419zM52.769 125.89c.804-.302.958-1.963.628-4.547-4.041-1.416-8.184-2.782-12.366-3.973 4.363 6.248 8.717 9.654 11.738 8.52z" fill="#008aff" opacity="1" data-original="#000000"></path><path d="M46.847 148.587c.057.152.132.293.214.426 1.956 4.29 12.311 7.726 25.66 8.606v1.77h4.25v21.053l-29.25 9v3.684a5.661 5.661 0 0 0-3.166 5.08 5.667 5.667 0 1 0 11.333 0 5.661 5.661 0 0 0-3.154-5.074l24.238-7.458v7.452a5.661 5.661 0 0 0-3.167 5.08 5.667 5.667 0 1 0 11.333 0 5.661 5.661 0 0 0-3.166-5.08v-7.452l24.238 7.458a5.661 5.661 0 0 0-3.155 5.074 5.667 5.667 0 1 0 11.334 0 5.661 5.661 0 0 0-3.167-5.08v-3.684l-29.25-9V159.39h4.25v-1.77c14.848-.978 26-5.12 26-10.08 0-4.807-46.77-5.552-61.266-2.235L40.399 117.19a128.344 128.344 0 0 0-5.908-1.511zM102.133 8.58a22.474 22.474 0 0 0-6.81 11.748l9.005-2.281zM139.786 25.212c0-3.37-.746-6.565-2.074-9.435L94.836 26.642c.738 11.76 10.505 21.07 22.45 21.07 12.428 0 22.5-10.073 22.5-22.5z" fill="#008aff" opacity="1" data-original="#000000"></path><path d="M117.286 2.712c-3.526 0-6.86.813-9.831 2.258l2.69 11.603 24.122-6.113a22.62 22.62 0 0 0-2.537-2.496l3.031-.607 4.6-.92 1.85 9.568 6.16-1.19-.219-1.136 4-.773-.753-3.891-3.999.773-1.442-7.458-6.161 1.191.184.953-6.1 1.22-3.321.664a22.389 22.389 0 0 0-12.274-3.646zM142.285 25.16l12.06-.825-.496-7.25-12.521.858.039.568.457 6.681zM107.928 18.497a1.541 1.541 0 1 0 0 3.082 1.541 1.541 0 0 0 0-3.082z" fill="#008aff" opacity="1" data-original="#000000"></path><path d="M.958 113.496c19.893-6.703 42.023 1.353 61.544 8.462 12.297 4.477 23.384 8.514 32.561 8.514 3.548 0 6.81-.603 9.746-2.017 5.06-2.436 8.67-7.043 11.037-14.086 3.455-10.284 9.176-20.83 15.793-30.85l-3.357-.326c-6.388 9.832-11.894 20.141-15.28 30.22a35.36 35.36 0 0 1-.7 1.876h-9.538c2.886-11.959 8.127-23.797 12.296-33.378l-11.448-1.11c-5.762-.56-9.995-5.702-9.438-11.465.527-5.41 5.012-9.488 10.434-9.488.342 0 .687.017 1.035.051l26.483 2.569 9.824-1.584 14.513-27.186a10.542 10.542 0 0 1 6.524-5.192l4.073-1.1a10.44 10.44 0 0 1 5.298-.047c1.505-1.54 2.39-2.403 2.457-2.465l1.85-1.682 3.501 3.852a25.52 25.52 0 0 1-.417-4.564c0-2.83.47-5.55 1.325-8.095-3.036-2-7.154-1.733-9.904.879L139.88 45.01l-9.594 1.547a24.848 24.848 0 0 1-13.001 3.655c-1.94 0-3.826-.23-5.64-.65l-9.485 1.53c-.238.038-.47.091-.698.149-6.33.92-13.093 4.796-17.962 12.893-10.866 18.309-15.037 30.845-17.145 53.11-.019 1.031.005 2.013.068 2.947l-2.896-1.052c-3.713-1.352-7.518-2.738-11.386-4.052C47.637 97.066 33.73 63.073 29.743 64.57c-4.34 1.63-4.586 12.129-1.086 25.124a2.474 2.474 0 0 0-1.206.127 2.5 2.5 0 0 0-1.461 3.22l6.197 16.503c-10.57-2.062-21.25-2.396-31.516.899-.224.071-.448.135-.671.21z" fill="#008aff" opacity="1" data-original="#000000"></path><path d="m178.515 28.964-2.018-2.22c-.052.048-.65.596-1.685 1.577a10.558 10.558 0 0 1 2.43 1.83c.78-.736 1.228-1.147 1.273-1.187zM171.886 45.266a7.999 7.999 0 0 0 5.636-9.81 7.999 7.999 0 0 0-9.81-5.637l-4.073 1.101a8.002 8.002 0 0 0-4.97 3.956l-16.586 31.069-36.685-3.558c-4.396-.432-8.308 2.793-8.735 7.19a8 8 0 0 0 7.19 8.735l42 4.073a8.002 8.002 0 0 0 7.83-4.195l17.47-32.727z" fill="#008aff" opacity="1" data-original="#000000"></path></g></svg>