<svg xmlns="http://www.w3.org/2000/svg" version="1.1" xmlns:xlink="http://www.w3.org/1999/xlink" width="512" height="512" x="0" y="0" viewBox="0 0 512 512" style="enable-background:new 0 0 512 512" xml:space="preserve" class=""><g><path fill-rule="evenodd" d="M126.406 93.23v4.59c0 2.79-2.264 5.053-5.054 5.053s-5.054-2.264-5.054-5.054V77.967a5.055 5.055 0 0 1 10.108 0v4.913c12.959 2.243 22.663 12.938 22.663 25.574v54.422h6.256V187.4c0 32.347-25.614 59.204-59.103 64.188v35.58c0 4.054-2.517 7.572-6.186 9.28v70.425c0 14.324 12.949 25.716 28.637 25.716 15.679 0 28.627-11.393 28.627-25.716V279.89c.845-32.318 51.435-32.39 52.3.001v121.512c0 14.717 12.999 26.473 28.808 26.473s28.819-11.757 28.819-26.473v-23.705c-39.035-3.16-57.445-54.156-28.828-81.534 18.7-18.7 49.065-18.7 67.765 0 28.626 27.378 10.211 78.375-28.829 81.533v23.705c0 20.085-17.345 36.582-38.927 36.582s-38.917-16.497-38.917-36.582V279.89c0-8.086-7.298-14.444-16.042-14.444s-16.042 6.357-16.042 14.444v86.982c0 19.64-17.235 35.824-38.735 35.824s-38.745-16.184-38.745-35.824v-70.424c-3.66-1.709-6.176-5.226-6.176-9.28v-35.581c-33.499-4.984-59.113-31.841-59.113-64.188v-24.523h5.882v-54.422c0-12.636 9.714-23.33 22.673-25.574v-4.913c0-2.79 2.264-5.055 5.054-5.055s5.055 2.264 5.055 5.055v19.852a5.055 5.055 0 0 1-10.108 0v-4.59c-7.208 1.951-12.565 7.956-12.565 15.224v54.422h6.479v24.523c0 24.422 21.45 44.244 47.873 44.244s47.873-19.822 47.873-44.244v-24.523h6.105v-54.422c.001-7.267-5.346-13.272-12.553-15.223zM231.37 285.783c62.748-40.462 121.307 52.207 57.243 91.42 16.678 15.86 35.228 29.333 53.554 39.28-2.2-8.476-.07-15.194 3.77-22.622-11.034 2.192-18.615-3.523-21.905-13.667-1.486-4.124-2.386-8.673-4.821-12.18a4.05 4.05 0 0 1 1.011-5.63c7.03-4.136 9.424 10.616 11.413 15.082 1.232 3.407 2.668 6.631 6.286 8.238 3.18 1.297 6.904-.16 10.291-.01.627-4.842.1-9.441-1.253-14.344a4.052 4.052 0 0 1 2.82-4.984 4.046 4.046 0 0 1 4.974 2.82c2.052 7.43 2.477 14.264.698 21.815-1.165 4.977-4.227 9.245-5.54 14.131-1.475 5.519.182 12.008 3.104 16.83 16.062 7.511 31.62 12.07 45.194 12.859-17.693-84.709 45.53-236.125-87.932-238.991-6.127 11.829-6.13 22.532 1.466 33.348 14.1-4.17 21.168 9.264 26.382 19.782 2.901 5.327 6.065 10.128 13.455 12.079 5.097 1.426 3.101 9.086-2.063 7.824-8.46-2.234-13.039-7.005-16.617-12.777-4.223-5.917-7.521-19.602-16.77-19.549 4.569 8.072 5.632 18.438 4.59 27.525-.728 6.368-2.598 12.938-5.873 18.467a4.038 4.038 0 0 1-5.539 1.415c-1.91-1.132-2.547-3.618-1.415-5.539 2.7-4.559 4.195-9.997 4.791-15.263 4.119-30.472-24.785-33.246-11.423-67.078-26.197 1.705-61.773 11.526-69.707 37.309-4.66 17.438-4.307 35.139-.184 52.41zm161.692-56.142c29.069 60.536.025 136.27 13 203.147 38.623-21.592 63.722-52.978 76.559-86.72-3.146-11.151-13.44-18.246-15.101-30.051-1.244-7.743 1.102-14.172 2.719-21.602 1.212-5.62 1.597-12.554.737-18.255-.333-2.204 1.193-4.266 3.396-4.6s4.266 1.193 4.6 3.396c1 6.61.575 14.657-.83 21.177-1.395 6.409-3.72 11.908-2.638 18.6 1.332 7.86 7.148 13.387 10.938 20.034 19.46-63.63-5.025-140.45-72.032-162.33-10.207 19.699 12.185 45.85-21.348 57.204zm-151.381 79.816c-26.472 27.857 13.343 67.675 41.202 41.2 26.472-27.871-13.347-67.668-41.202-41.2zm7.146 7.147c18.195-17.29 44.201 8.712 26.908 26.908-18.198 17.295-44.2-8.727-26.908-26.908zM233.24 214.429c37.906-37.968 124.433-36.001 155.364 8.106 30.586-7.553 4.929-35.359 20.146-56.283 3.75-31.619 35.058-34.683 65.815-33.994-11.886-15.471-13.06-39.436-.09-53.877-42.142-3.468-78.906 5.994-110.555 34.954-70.715-.91-121.81 43.555-130.68 101.094zm-1.02-26.706c6.165-15.84 15.485-30.497 27.596-42.89-6.4-8.533-24.229-29.434-34.055-29.527-10.203 3.33-17.545 13.826-23.583 23.795-3.015 5.712-5.313 10.206-5.307 15.506.04.444-.02.879.293 1.071 13.07 8.31 24.614 19.247 35.056 32.045zM485.887 79.695c-18.374 10.658-15.63 40.92.758 53.25 12.368-4.984 12.316-49.217-.758-53.25zm-184.305 4.286h-20.338l-.455 43.577a127.24 127.24 0 0 1 20.793-11.018zm28.97 24.24V83.98H309.67v29.507a136.549 136.549 0 0 1 20.884-5.267z" clip-rule="evenodd" fill="#008aff" opacity="1" data-original="#000000" class=""></path></g></svg>