<svg xmlns="http://www.w3.org/2000/svg" version="1.1" xmlns:xlink="http://www.w3.org/1999/xlink" width="512" height="512" x="0" y="0" viewBox="0 0 64 64" style="enable-background:new 0 0 512 512" xml:space="preserve" class=""><g><g data-name="Layer 41"><path d="M59 56h-4.45A28.031 28.031 0 0 0 62 37a27.723 27.723 0 0 0-2.47-11.49 6.98 6.98 0 0 0-5.23-9.38l.78-2.88a1.055 1.055 0 0 0-.1-.76 1.026 1.026 0 0 0-.61-.47l-2.9-.77.52-1.93s2.1.55 2.19.55a.993.993 0 0 0 .5-.14 1.006 1.006 0 0 0 .47-.6l1.03-3.87a.994.994 0 0 0-.71-1.22l-9.66-2.59a.988.988 0 0 0-.75.1 1 1 0 0 0-.47.61l-1.04 3.86a1 1 0 0 0 .71 1.22l1.93.52-.51 1.93-2.9-.78a1.055 1.055 0 0 0-.76.1 1.026 1.026 0 0 0-.47.61l-5.18 19.32a1.017 1.017 0 0 0 .71 1.23l.97.26-.78 2.89a1.055 1.055 0 0 0 .1.76 1.026 1.026 0 0 0 .61.47l.97.26-.78 2.9a.994.994 0 0 0 .71 1.22S42.91 40 43 40a1.094 1.094 0 0 0 .5-.13 1.026 1.026 0 0 0 .47-.61l.77-2.9s1.14.29 1.23.29a.991.991 0 0 0 .96-.74l.78-2.89s1.13.29 1.22.29a1 1 0 0 0 .97-.74l.79-2.97a6.755 6.755 0 0 0 2.01.38 19.844 19.844 0 0 1-4.76 21.34A6.977 6.977 0 0 0 42 48a6.634 6.634 0 0 0-1 .08V47h7a1 1 0 0 0 1-1v-3a1 1 0 0 0-1-1H28a1 1 0 0 0-1 1v3a1 1 0 0 0 1 1h7v9H25a3.009 3.009 0 0 0-3 3v2a1 1 0 0 0 1 1h38a1 1 0 0 0 1-1v-2a3.009 3.009 0 0 0-3-3ZM45.75 5.57l.51-1.93 7.73 2.07-.52 1.93Zm4.31 3.23-.52 1.93-1.93-.52.52-1.93Zm-7.77 28.98-1.93-.52.52-1.93 1.93.51Zm2.97-3.35-5.8-1.55.52-1.94 5.8 1.56Zm2.96-3.35-9.66-2.59 4.67-17.39 9.65 2.6-.63 2.34a6.987 6.987 0 0 0-3.37 12.6ZM53 28a5 5 0 1 1 5-5 5 5 0 0 1-5 5Zm3 9a21.851 21.851 0 0 0-1.25-7.23 7.054 7.054 0 0 0 3.5-2.15A25.651 25.651 0 0 1 60 37a26.042 26.042 0 0 1-8.27 19H49v-1a6.989 6.989 0 0 0-.22-1.72A21.99 21.99 0 0 0 56 37ZM42 50a5 5 0 0 1 5 5v1H37v-1a5 5 0 0 1 5-5Zm-5 .11V47h2v1.69a6.743 6.743 0 0 0-2 1.42ZM29 45v-1h18v1Zm31 15H24v-1a1 1 0 0 1 1-1h34a1 1 0 0 1 1 1ZM21 27a1 1 0 0 0-1-1h-1v-2.09a5.964 5.964 0 0 0 2.471-1.025l1.479 1.479-.707.707a1 1 0 1 0 1.414 1.414l2.828-2.828a1 1 0 0 0-1.414-1.414l-.707.707-1.479-1.479A5.964 5.964 0 0 0 23.91 19H26v1a1 1 0 0 0 2 0v-4a1 1 0 0 0-2 0v1h-2.09a5.964 5.964 0 0 0-1.025-2.471l1.479-1.479.707.707a1 1 0 0 0 1.414-1.414l-2.828-2.828a1 1 0 0 0-1.414 1.414l.707.707-1.479 1.479A5.964 5.964 0 0 0 19 12.09V10h1a1 1 0 0 0 0-2h-4a1 1 0 0 0 0 2h1v2.09a5.964 5.964 0 0 0-2.471 1.025l-1.479-1.479.707-.707a1 1 0 0 0-1.414-1.414l-2.828 2.828a1 1 0 1 0 1.414 1.414l.707-.707 1.479 1.479A5.964 5.964 0 0 0 12.09 17H10v-1a1 1 0 0 0-2 0v4a1 1 0 0 0 2 0v-1h2.09a5.964 5.964 0 0 0 1.025 2.471l-1.479 1.479-.707-.707a1 1 0 0 0-1.414 1.414l2.828 2.828a1 1 0 0 0 1.414-1.414l-.707-.707 1.479-1.479A5.964 5.964 0 0 0 17 23.91V26h-1a1 1 0 0 0 0 2h4a1 1 0 0 0 1-1Zm-7-9a4 4 0 1 1 4 4 4 4 0 0 1-4-4Z" fill="#008aff" opacity="1" data-original="#000000" class=""></path><path d="m25.516 32.117 7.236 1.852a1 1 0 0 0 1.217-1.217l-1.852-7.236a16.02 16.02 0 1 0-6.6 6.6ZM4 18a14 14 0 1 1 26.181 6.885 1 1 0 0 0-.1.743l1.531 5.985-5.984-1.532a1 1 0 0 0-.742.1A13.988 13.988 0 0 1 4 18ZM22 37a1 1 0 0 0-1-1H9a1 1 0 0 0-1 1v4a1 1 0 0 0 1 1h1v15a5 5 0 0 0 10 0V42h1a1 1 0 0 0 1-1Zm-7 23a3 3 0 0 1-3-3v-1h2a1 1 0 0 0 0-2h-2v-2h2a1 1 0 0 0 0-2h-2v-2h6v9a3 3 0 0 1-3 3Zm3-14h-6v-4h6Zm2-6H10v-2h10ZM50 23a3 3 0 1 0 3-3 3 3 0 0 0-3 3Zm4 0a1 1 0 1 1-1-1 1 1 0 0 1 1 1Z" fill="#008aff" opacity="1" data-original="#000000" class=""></path></g></g></svg>