<svg xmlns="http://www.w3.org/2000/svg" version="1.1" xmlns:xlink="http://www.w3.org/1999/xlink" width="512" height="512" x="0" y="0" viewBox="0 0 512 512" style="enable-background:new 0 0 512 512" xml:space="preserve"><g><path d="M455.315 296.157c-10.336-6.305-23.464-4.496-31.991 4.496-18.709 19.639-43.465 35.712-71.838 46.772-2.894-11.267-12.869-22.43-28.839-22.378-11.422.207-22.378-.362-34.937 0-21.603-16.59-51.062-22.637-77.42-15.763-20.983 5.478-39.64 19.071-51.837 36.953-4.238-17.314-19.846-30.286-38.451-30.286H83.826c-21.862 0-39.64 17.778-39.64 39.64v108.894c0 21.861 17.778 39.588 39.64 39.588h36.177c20.828 0 37.934-16.176 39.433-36.694 31.629 7.855 83.983 9.509 132.151-1.085 55.765-12.3 131.169-46.1 173.806-137.371 5.53-11.783 1.344-25.789-10.078-32.766zm.724 28.373c-74.37 159.129-256.032 143.314-296.448 132.254V365.72c9.406-22.533 29.717-40.26 53.284-46.41 23.877-6.254 50.648-.465 69.874 14.988.982.775 2.222 1.24 3.411 1.137 12.3-.465 24.394.155 36.643-.052 11.318-.207 17.469 7.856 18.967 15.866 1.344 6.926-.827 16.383-11.163 20.208-15.04 5.53-42.069 7.029-75.404 10.026-2.842.31-4.961 2.791-4.703 5.633a5.208 5.208 0 0 0 5.168 4.703h.465c32.095-2.946 61.502-4.548 78.092-10.698 11.577-4.29 17.055-13.592 18.037-22.947 31.009-11.577 58.142-28.942 78.557-50.39 5.116-5.427 12.972-6.564 19.432-2.636 6.563 4.033 9.044 12.354 5.788 19.382zM449.424 22.966c-.31-2.377-2.171-4.238-4.496-4.497-1.964-.258-47.702-5.427-73.492 20.363-10.44 10.44-15.763 24.084-18.399 36.849-21.086-34.575-41.862-63.207-43.62-65.584-.982-1.343-2.532-2.171-4.186-2.171s-3.204.827-4.186 2.171c-2.274 3.101-36.332 49.977-61.708 96.904-22.688-21.448-61.45-17.107-63.103-16.9-2.326.258-4.186 2.119-4.496 4.496-.207 1.706-4.755 41.604 17.83 64.137 6.719 6.77 14.988 11.06 23.36 13.799-8.527 47.754 32.715 103.054 92.304 103.054 51.424 0 93.234-41.811 93.234-93.234 0-16.538-9.458-40.518-22.172-65.326 15.97-1.085 37.728-5.581 52.767-20.569 25.789-25.841 20.569-71.58 20.363-73.492zm-61.295 159.387c0 45.687-37.211 82.898-82.898 82.898-51.837 0-89.1-47.754-82.278-90.133 9.303 1.809 19.381 2.274 28.115 1.654l10.802 10.75a5.057 5.057 0 0 0 7.287 0 5.057 5.057 0 0 0 0-7.287l-10.75-10.802c.62-8.217 1.24-34.472-11.939-53.956 20.57-38.555 48.323-78.763 58.762-93.492 8.321 11.783 27.65 39.743 45.584 70.184-.465 7.804-.207 14.161.052 17.52l-12.714 12.714c-2.015 2.015-2.015 5.271 0 7.339a5.146 5.146 0 0 0 7.287 0l12.714-12.765c1.654.155 3.928.258 6.719.361 13.231 25.013 23.257 49.201 23.257 65.015z" fill="#008aff" opacity="1" data-original="#000000"></path></g></svg>