<svg xmlns="http://www.w3.org/2000/svg" version="1.1" xmlns:xlink="http://www.w3.org/1999/xlink" width="512" height="512" x="0" y="0" viewBox="0 0 512 512" style="enable-background:new 0 0 512 512" xml:space="preserve" class=""><g><path d="m157.344 166.536 43.438 61.005c6.669 9.367 4.482 22.367-4.886 29.036a20.816 20.816 0 0 1-9.432 3.691l-65.255 8.208a87.076 87.076 0 0 1-20.883-23.024c1.531-5.757 7.864-21.568 18.643-25.541a6 6 0 0 0-4.15-11.26c-11.282 4.159-18.295 15.008-22.175 23.3a88.446 88.446 0 0 1-5.577-20.44 6 6 0 1 0-11.875 1.733A102.73 102.73 0 0 0 95.7 261.233a107.491 107.491 0 0 0 8.503 9.532c-16.5 2.96-34.023 8.557-42.515 19.172a6 6 0 1 0 9.37 7.496c10.693-13.365 46.996-17.27 65.211-17.883l44.111 5.644c12.534 1.603 21.395 13.064 19.792 25.598a22.885 22.885 0 0 1-4.706 11.235l-52.32 66.58c-6.177 6.746-26.936 29.737-39.211 47.274a6.001 6.001 0 1 0 9.831 6.88c4.543-6.489 10.412-13.884 16.246-20.891-.008 11.007 1.494 25.609 7.86 38.34a6 6 0 0 0 10.774-5.284l-.042-.084c-10.083-20.166-5.567-47.608-5.52-47.883.015-.087.007-.172.018-.26a6.006 6.006 0 0 0 1.919-1.184l72.331-66.277c7.026-6.438 17.941-5.962 24.379 1.064a17.249 17.249 0 0 1 4.445 9.919l6.815 65.71c.25 3.233.638 7.062 1.238 11.235-3.76 1.889-15.891 9.458-21.711 30.802a6 6 0 0 0 11.577 3.158c3.38-12.394 8.995-18.52 12.511-21.298a80.199 80.199 0 0 0 11.172 27.205 6 6 0 0 0 9.83-6.88c-9.42-13.457-12.051-35.988-12.787-47.294l3.318-32.763c1.831-18.079 17.972-31.25 36.051-29.419a32.903 32.903 0 0 1 18.616 8.208 212.07 212.07 0 0 1 27.706 28.156 245.53 245.53 0 0 1 19.741 35.305 5.96 5.96 0 0 0-.478.607c-.628.987-15.342 24.491-10.969 50.729a6 6 0 0 0 11.836-1.973c-2.323-13.942 2.147-27.409 5.651-35.277a306.04 306.04 0 0 1 8.977 25.843 6 6 0 1 0 11.5-3.43 291.022 291.022 0 0 0-32.448-72.708 93.45 93.45 0 0 1 23.073-2.212c.996 8.471 4.768 27.883 18.743 36.268a6 6 0 0 0 6.174-10.289c-7.871-4.723-11.362-16.678-12.651-24.776a83.65 83.65 0 0 1 25.926 8.904 6 6 0 0 0 5.707-10.557c-31.834-17.208-62.646-11.184-74.157-7.906l-37.924-52.904c-7.301-10.314-4.859-24.593 5.455-31.894a22.882 22.882 0 0 1 10.915-4.089l72.647-7.358c7.784 5.865 23.82 19.135 27.911 28a6 6 0 1 0 10.946-4.918l-.051-.111c-4.634-10.041-18.192-21.949-26.671-28.74 7.613-4.358 18.821-9.338 27.603-8.297a6 6 0 0 0 1.402-11.918c-16.296-1.923-35.006 9.532-41.036 13.587l-62.34-6.313c-11.44-1.158-19.775-11.371-18.617-22.811a20.82 20.82 0 0 1 6.565-13.176l58.154-50.403c18.444-13.145 52.356-39.611 60.2-61.576a6 6 0 0 0-11.3-4.035c-4.176 11.691-18.811 26.319-33.924 38.938-1.567-8.275-2.707-24.062 4.739-43.917a6.001 6.001 0 0 0-11.237-4.213 107.525 107.525 0 0 0-5.082 18.127c-3.209-.68-9.907-3.417-12.827-14.514a6 6 0 1 0-11.605 3.055c4.283 16.273 15.59 22.14 22.976 23.405a76.912 76.912 0 0 0 2.691 26.356l-85.219 55.376c-12.664 7.468-28.984 3.255-36.452-9.409a26.622 26.622 0 0 1-3.595-11.275l-3.897-49.49c.004-.147.626-15.008 19.976-39.887a6 6 0 0 0-9.473-7.367 152.86 152.86 0 0 0-12.568 18.667 396.614 396.614 0 0 1 6.011-69.52 6 6 0 0 0-11.766-2.358c-.012.061-.024.122-.034.184a384.198 384.198 0 0 0-5.342 44.008c-10.069-13.739-23.094-14.498-23.915-14.531a5.958 5.958 0 0 0-6.185 5.669 6.038 6.038 0 0 0 5.62 6.317c.763.053 17.431 1.585 22.646 29.721l-7.102 83.81c-.766 9.038-8.713 15.744-17.751 14.978a16.425 16.425 0 0 1-9.916-4.449 583.373 583.373 0 0 1-55.027-51.981c-7.563-9.555-23.023-32.562-21.602-59.551a6.001 6.001 0 0 0-11.985-.631 88.264 88.264 0 0 0 5.946 35.82 72.33 72.33 0 0 0-28.271-6.106 6 6 0 1 0 0 12c19.784 0 35.566 11.74 35.807 11.92a267.085 267.085 0 0 0 14.711 18.771zm177.028 108.206c-19.166 1.941-33.13 19.053-31.188 38.219a34.877 34.877 0 0 0 6.233 16.637l8.737 12.343c-22.575-9.371-48.503.996-58.393 23.35l-1.648-16.278c-1.605-16.067-15.932-27.79-31.998-26.184a29.235 29.235 0 0 0-16.873 7.562l-18.177 16.656L204.9 329.44c11.903-15.147 9.273-37.074-5.874-48.977a34.88 34.88 0 0 0-17.124-7.173l-1.332-.171 7.418-.949c17.979-2.301 30.689-18.742 28.387-36.722a32.812 32.812 0 0 0-5.818-14.867l-10.062-14.131 9.012 8.549c11.39 10.803 29.38 10.327 40.183-1.063a28.423 28.423 0 0 0 7.699-17.158l1.278-15.087.836 9.863c1.8 21.251 20.486 37.02 41.737 35.22a38.615 38.615 0 0 0 16.53-5.318l6.471-4.109c-12.454 13.173-11.871 33.947 1.302 46.4a32.824 32.824 0 0 0 19.239 8.805l5.606.567z" fill="#008aff" opacity="1" data-original="#000000"></path><path d="M262.04 240.93c-18.978 0-34.363 15.385-34.363 34.363s15.385 34.363 34.363 34.363 34.363-15.385 34.363-34.363c-.021-18.969-15.394-34.342-34.363-34.363zm0 56.726c-12.351 0-22.363-10.012-22.363-22.363s10.012-22.363 22.363-22.363 22.363 10.012 22.363 22.363c-.014 12.345-10.018 22.349-22.363 22.363z" fill="#008aff" opacity="1" data-original="#000000"></path></g></svg>