<svg xmlns="http://www.w3.org/2000/svg" version="1.1" xmlns:xlink="http://www.w3.org/1999/xlink" width="512" height="512" x="0" y="0" viewBox="0 0 64 64" style="enable-background:new 0 0 512 512" xml:space="preserve" class=""><g><path d="M45.514 37.375a4.51 4.51 0 0 0 .897-1.08l.086-.15a3.216 3.216 0 0 0-1.176-4.388l-2.257-1.303a3.21 3.21 0 0 0-4.298 1.052c-.257-.113-.517-.22-.78-.319-.347-.522-1.296-2.341-2.786-5.495a4.942 4.942 0 0 0-4.45-2.816h-.953l-.208-1.327c3.063-.165 5.97-.757 6.622-5.37a3.054 3.054 0 0 0-.25-1.416 2.825 2.825 0 0 1-.175-.632l.028-.68a16.425 16.425 0 0 0-.229-4.333l-.014-.057a1.935 1.935 0 0 0-.148-1.172l-.31-.658c-.01-.029-.029-.058-.038-.087a9.503 9.503 0 0 0-17.039 1.451c0 .02-.029.087-.029.107a15.722 15.722 0 0 0-.551 3.338L16.662 26.6a.97.97 0 0 0 .513.91 1.046 1.046 0 0 0 .455.106.995.995 0 0 0 .58-.193l.41-.312a8.569 8.569 0 0 0-1.222 4.404.551.551 0 0 0 .01.126l.967 7.227a18.65 18.65 0 0 1-1.074 9.144 16.955 16.955 0 0 0-.435 10.875l.396 1.315a1.814 1.814 0 0 0 1.732 1.297h20.299a1.813 1.813 0 0 0 1.81-1.81v-1.064a1.064 1.064 0 0 1 .415-.86 15.204 15.204 0 0 0 3.996-20.391zm-5.248-4.628.086-.15a1.277 1.277 0 0 1 1.744-.467l2.258 1.303a1.279 1.279 0 0 1 .465 1.746l-.086.15a2.58 2.58 0 1 1-4.467-2.582zM28.433 19.662h-.003a.969.969 0 0 0-.92 1.116l.329 2.098h-1.801a8.588 8.588 0 0 0-2.642.418 9.54 9.54 0 0 0 2.69-5.12l.087-.445a1.076 1.076 0 0 0 .02-.165 4.413 4.413 0 0 0-1.307-2.999c-.687-.716-.783-1.064-.483-1.703.164-.348.435-.58 1.18-.58h.01a1.419 1.419 0 0 1 1.2.832c.019.029.038.068.057.097l.716 1.248a.963.963 0 0 0 1.22.406 23.865 23.865 0 0 0 5.112-3.64 21.87 21.87 0 0 1-.016 2.138l-.03.706a3.703 3.703 0 0 0 .282 1.332 4.36 4.36 0 0 1 .16.51c-.48 3.4-2.241 3.615-5.861 3.75zm-7.794 12.9-.387-1.172a3.86 3.86 0 0 1 2.458-4.886 3.733 3.733 0 0 1 1.209-.203 3.883 3.883 0 0 1 3.677 2.661l.387 1.17a18.368 18.368 0 0 0 1.77 3.803l-7.101 3.183a25.889 25.889 0 0 1-2.013-4.557zM42.612 45.69l-.252 1.016a1.397 1.397 0 0 1-1.161 1.035l-.61.077a4.06 4.06 0 0 1-2.931-.745.78.78 0 0 0-.31-.155 19.538 19.538 0 0 1-12.104-8.843l3.58-1.606a15.712 15.712 0 0 0 9.54 6.715 4.73 4.73 0 0 0 1.432.087 3 3 0 0 1 2.167.841l.271.262a1.382 1.382 0 0 1 .378 1.316z" data-name="Layer 31" fill="#008aff" opacity="1" data-original="#000000"></path></g></svg>