<svg xmlns="http://www.w3.org/2000/svg" version="1.1" xmlns:xlink="http://www.w3.org/1999/xlink" width="512" height="512" x="0" y="0" viewBox="0 0 512 512" style="enable-background:new 0 0 512 512" xml:space="preserve" class=""><g><path d="M158.36 358.65H24.072c-9.153 0-16.572-7.42-16.572-16.572v-49.896c0-9.153 7.42-16.572 16.572-16.572h284.186c9.153 0 16.572 7.42 16.572 16.572v49.896c0 9.153-7.42 16.572-16.572 16.572H194.36M119.692 23.741h188.565c9.153 0 16.572 7.42 16.572 16.572v167.123c0 9.153-7.42 16.572-16.572 16.572H24.072c-9.153 0-16.572-7.42-16.572-16.572V40.313c0-9.153 7.42-16.572 16.572-16.572h57.62M256 270.993l-41.437-46.985M117.767 224.008l-45.508 51.601M479.241 197.332l24.85-127.014c2.31-11.809-5.39-23.255-17.199-25.566h0c-11.809-2.31-23.255 5.39-25.566 17.199l-52.48 268.236c-3.72 19.016 8.679 37.448 27.695 41.168h0c19.016 3.72 37.448-8.679 41.168-27.695l16.958-86.676a35.692 35.692 0 0 0-7.713-29.826h0a35.685 35.685 0 0 1-7.713-29.826z" style="stroke-width:15;stroke-linecap:round;stroke-linejoin:round;stroke-miterlimit:10;" fill="none" stroke="#008aff" stroke-width="15" stroke-linecap="round" stroke-linejoin="round" stroke-miterlimit="10" data-original="#000000" opacity="1" class=""></path><path d="m434.01 377.238-9.177 35.902c-11.298 44.199-51.116 75.119-96.736 75.119h0c-55.144 0-99.846-44.703-99.846-99.846V358.65M210.658 78.523c-2.626-1.934-6.318-1.689-8.565.675-9.062 9.529-21.792 15.529-35.927 15.758-14.136-.229-26.865-6.229-35.927-15.758-2.248-2.363-5.939-2.609-8.565-.675l-50.456 37.164c-3.063 2.256-3.556 6.621-1.116 9.538 22.996 27.493 57.476 45.044 96.065 45.294 38.589-.25 73.068-17.801 96.065-45.294 2.44-2.918 1.947-7.282-1.116-9.538l-50.458-37.164zM48.062 317.13h18.029M96.82 317.13h18.028M145.577 317.13h18.029M324.83 330.83H210.648c-6.955 0-12.594-5.638-12.594-12.594v-2.213c0-6.955 5.638-12.594 12.594-12.594H324.83v27.401zM436.513 188.773l42.728 8.559" style="stroke-width:15;stroke-linecap:round;stroke-linejoin:round;stroke-miterlimit:10;" fill="none" stroke="#008aff" stroke-width="15" stroke-linecap="round" stroke-linejoin="round" stroke-miterlimit="10" data-original="#000000" opacity="1" class=""></path></g></svg>