<svg xmlns="http://www.w3.org/2000/svg" version="1.1" xmlns:xlink="http://www.w3.org/1999/xlink" width="512" height="512" x="0" y="0" viewBox="0 0 208.006 220.016" style="enable-background:new 0 0 512 512" xml:space="preserve"><g><path d="M.085 78.703c-.892 7.726 5.358 13.284 13.422 17.48 3.918 2.039 8.262 3.759 12.427 5.248 11.006 3.934 21.977 6.469 22.438 6.575a7.986 7.986 0 0 0 1.797.205 8.002 8.002 0 0 0 1.785-15.799C38.1 89.225 24.181 84.241 18.26 80.574a11.283 11.283 0 0 1-1.967-1.546c1.31-10.063 3.738-16.876 5.738-21.387v22.382c3 1.737 8.378 3.777 14.403 5.755a10.213 10.213 0 0 1 7.482-4.314c13.291-1.154 25.115-3.663 32.115-5.93v-17.86c2 3.896 3.715 9.614 5.048 17.977-.156.099-.363.198-.544.298-5.358 2.97-21.157 6.37-36.55 7.706a7.997 7.997 0 0 0-5.449 2.832 186.892 186.892 0 0 0 13.916 3.781c3.89.895 6.735 3.921 7.617 7.559 9.577-1.493 20.525-3.949 27.916-7.91 2.724-1.46 4.965-3.124 6.474-5.021 2.02-2.538 2.978-5.558 2.77-8.588a8.038 8.038 0 0 0-.066-.752c-.004-.028-.003-.055-.007-.083l-.001-.006C92.34 41.335 77.961 34.823 70.809 33.743 66.711 41.724 58.4 47.2 48.828 47.2c-9.566 0-17.873-5.47-21.974-13.442-2.603.406-6.18 1.54-9.935 4.493C8.1 45.183 2.437 58.781.087 78.667l-.002.036z" fill="#008aff" opacity="1" data-original="#000000"></path><path d="M60.102 102.494a10.15 10.15 0 0 1-9.934 7.917 10.24 10.24 0 0 1-2.29-.261c-.465-.106-11.417-2.664-22.561-6.647-1.128-.403-2.287-.827-3.287-1.266v105.415c0 6.83 5.173 12.363 11.999 12.363 6.828 0 12.001-5.533 12.001-12.363V117.63h5v90.022c0 6.83 5.673 12.363 12.499 12.363 6.828 0 12.501-5.533 12.501-12.363V96.814c-5 1.373-10.465 2.416-15.604 3.21.016.814-.133 1.641-.324 2.47z" fill="#008aff" opacity="1" data-original="#000000"></path><circle cx="48.828" cy="22.5" r="22.5" fill="#008aff" opacity="1" data-original="#000000"></circle><path d="M170.982 5.829c-27.085-7.724-55.304 7.971-63.028 35.056-3.451 12.101-2.216 24.423 2.609 35.048L90.988 95.528l25.306-9.935a50.766 50.766 0 0 0 26.716 18.321c27.085 7.724 55.304-7.971 63.028-35.056 7.724-27.086-7.971-55.304-35.056-63.029zm25.554 62.346c-6.589 23.103-30.659 36.491-53.762 29.902s-36.491-30.659-29.902-53.762 30.659-36.491 53.762-29.903 36.49 30.66 29.902 53.763zM193.209 150.753c-5.7-27.582-32.681-45.321-60.263-39.621a50.766 50.766 0 0 0-27.998 16.295l-24.502-11.779 18.073 20.988c-5.598 10.239-7.741 22.436-5.194 34.759 5.7 27.582 32.681 45.321 60.263 39.621s45.321-32.681 39.621-60.263zm-36.901 49.535c-.332-9.349-3.297-19.363-5.739-27.612-1.687-5.698-3.144-10.619-2.932-12.937.052-.575.306-1.021.777-1.399 1.048.51 4.316 2.234 7.21 5.09-.601 1.202-.978 2.608-.869 4.172.303 4.341 5.653 6.259 7.571 6.259s12.316-1.413 12.518-13.931-3.197-15.917-7.269-18.07c-5.551-2.936-13.729-2.524-14.335 3.937-.466 4.973 3.132 6.834 4.815 7.429-.402.312-.73.738-.983 1.223-3.609-.247-7.793-.059-10.145 1.67-1.144.842-1.815 2.011-1.94 3.38-.257 2.825 1.194 7.726 3.032 13.932 2.468 8.336 5.471 18.51 5.642 27.736-1.234.371-2.49.701-3.776.967a43.302 43.302 0 0 1-21.199-.898c.158-9.244 3.17-19.448 5.643-27.804 1.838-6.206 3.289-11.107 3.032-13.932-.125-1.369-.795-2.538-1.94-3.38-2.351-1.728-6.534-1.916-10.144-1.669-.253-.486-.582-.912-.984-1.224 1.683-.594 5.281-2.456 4.815-7.429-.606-6.461-8.784-6.873-14.335-3.937-4.072 2.154-7.47 5.552-7.269 18.07s10.6 13.931 12.518 13.931 7.269-1.918 7.571-6.259c.109-1.564-.268-2.969-.868-4.17 2.891-2.849 6.162-4.58 7.21-5.092.471.378.724.823.776 1.398.211 2.318-1.245 7.238-2.932 12.937-2.448 8.266-5.418 18.305-5.74 27.671-13.613-5.031-24.405-16.75-27.559-32.009-4.862-23.527 10.269-46.541 33.796-51.404s46.541 10.269 51.404 33.796c4.407 21.309-7.591 42.196-27.372 49.558zm.308-43.19c.171 1.273.86 2.338 1.802 2.881-.407.332-.843.742-1.267 1.219-1.859-1.771-3.805-3.11-5.316-4.018 1.466-.187 3.14-.185 4.781-.082zm-32.683 2.881c.943-.543 1.632-1.609 1.802-2.882 1.64-.103 3.315-.104 4.781.082-1.511.908-3.457 2.247-5.317 4.018a11.01 11.01 0 0 0-1.266-1.218z" fill="#008aff" opacity="1" data-original="#000000"></path><path d="M165.967 36.69c-1.817.21-2.886.296-3.683.28-.28 3.846-.874 14.285.12 23.124.702.749 1.624 1.441 3.066.786 3.645-1.657 13.42-4.473 17.231-9.61 3.811-5.136 8.45-4.473 8.616-7.124.165-2.651-21.042-7.953-25.35-7.456zM160.061 36.573c-.217-.064-.453-.136-.721-.214-2.195-.642-11.929-6.959-19.882-5.302s-16.237 6.462-16.237 25.847 0 20.876 6.627 17.894 28-8.616 29.823-13.917c.228-.664.433-1.135.624-1.456-1.158-10.176-.577-19.159-.234-22.852zM159.381 27.631h-3.728l-.621 4.633 4.908 2.84zM165.781 34.785l-.187-6.462-3.231.311.063 6.524zM162.736 62.061l-2.485.062s.29 2.858.953 4.308 1.657 4.639 1.657 4.639l2.609.062s-.994-3.231-1.74-5.157c-.745-1.926-.994-3.914-.994-3.914z" fill="#008aff" opacity="1" data-original="#000000"></path></g></svg>